<?xml version="1.0" standalone="no"?>
<svg viewBox="0 0 200 200" xmlns="http://www.w3.org/2000/svg">
  <path fill="#F35B04" d="M37.5,-63.4C44.3,-54.1,42.4,-36.3,47.5,-22.5C52.7,-8.6,64.8,1.2,64.5,9.9C64.2,18.6,51.5,26,42.9,38.9C34.4,51.7,30.2,70,21,73.5C11.9,77.1,-2.1,66,-17.2,60.7C-32.3,55.3,-48.5,55.7,-59.7,48.5C-70.9,41.4,-77,26.7,-72.8,14.3C-68.7,1.9,-54.2,-8.1,-45.1,-17.5C-36,-26.9,-32.3,-35.7,-25.7,-45.2C-19.1,-54.7,-9.5,-64.8,2.9,-69.3C15.4,-73.9,30.8,-72.8,37.5,-63.4Z" transform="translate(100 100)" />
</svg>
