<?xml version="1.0" standalone="no"?>
<svg viewBox="0 0 200 200" xmlns="http://www.w3.org/2000/svg">
  <path fill="#F7B801" d="M48.3,-74.9C63.2,-65.5,76.4,-53.2,84.2,-37.9C92.1,-22.6,94.6,-4.3,90.7,12.1C86.8,28.5,76.6,43,65.1,56.5C53.5,70,40.7,82.5,25.5,86.9C10.4,91.3,-7.1,87.6,-23.1,81.6C-39.1,75.6,-53.5,67.2,-64.1,55.4C-74.6,43.5,-81.2,28.1,-83.4,12.1C-85.6,-3.9,-83.4,-20.5,-77.6,-36.3C-71.7,-52.1,-62.3,-67.2,-48.8,-77.2C-35.2,-87.3,-17.6,-92.3,-0.5,-91.6C16.7,-90.8,33.3,-84.3,48.3,-74.9Z" transform="translate(100 100)" />
</svg>
