<?xml version="1.0" standalone="no"?>
<svg viewBox="0 0 200 200" xmlns="http://www.w3.org/2000/svg">
  <path fill="#F35B04" d="M48.1,-73.7C61.4,-66.3,70.8,-51.4,77,-35.8C83.2,-20.1,86.2,-3.6,83.9,12C81.5,27.6,73.7,42.3,62.9,54.3C52.2,66.3,38.6,75.6,23.2,80.9C7.9,86.2,-9.1,87.6,-24.5,83.2C-39.9,78.8,-53.7,68.6,-65.2,56.1C-76.6,43.6,-85.7,28.6,-88,12.6C-90.3,-3.3,-85.8,-20.2,-77.8,-34.5C-69.7,-48.9,-58.1,-60.6,-44.5,-67.9C-31,-75.2,-15.5,-78.1,0.9,-79.5C17.4,-81,34.7,-81,48.1,-73.7Z" transform="translate(100 100)" />
</svg>
