<?xml version="1.0" standalone="no"?>
<svg viewBox="0 0 200 200" xmlns="http://www.w3.org/2000/svg">
  <path fill="#3D348B" d="M26.7,-40.1C40.4,-32.7,61.4,-35.2,68.9,-28.6C76.4,-22,70.3,-6.4,66.5,8.4C62.6,23.2,60.9,37.2,52.7,44.3C44.5,51.3,29.8,51.3,17.7,50.3C5.7,49.2,-3.7,47,-18.1,48.6C-32.4,50.3,-51.7,55.9,-59.5,49.9C-67.3,43.9,-63.6,26.3,-62.2,11.2C-60.7,-3.8,-61.6,-16.1,-57.2,-26.2C-52.7,-36.3,-43.1,-44.2,-32.7,-53.1C-22.3,-62,-11.1,-72,-2.3,-68.4C6.5,-64.8,13,-47.5,26.7,-40.1Z" transform="translate(100 100)" />
</svg>
