<?xml version="1.0" standalone="no"?>
<svg viewBox="0 0 200 200" xmlns="http://www.w3.org/2000/svg">
  <path fill="#7678ED" d="M30,-48.9C41,-39.6,53.7,-34.9,53.2,-26.9C52.7,-18.9,39.2,-7.6,35.8,4.1C32.5,15.8,39.4,27.9,39.4,42.1C39.5,56.3,32.8,72.5,20.8,80.4C8.8,88.3,-8.5,87.9,-19.3,78.8C-30.1,69.6,-34.6,51.7,-39.8,38.5C-45.1,25.3,-51.1,16.8,-57.4,5.3C-63.7,-6.2,-70.2,-20.6,-64.5,-27.9C-58.7,-35.1,-40.6,-35.1,-27.8,-43.6C-15,-52.2,-7.5,-69.2,1,-70.8C9.5,-72.3,19,-58.3,30,-48.9Z" transform="translate(100 100)" />
</svg>
