<?xml version="1.0" standalone="no"?>
<svg viewBox="0 0 200 200" xmlns="http://www.w3.org/2000/svg">
  <path fill="#F7B801" d="M40.3,-63.1C50.8,-55.9,57.1,-42.4,58.6,-29.5C60.2,-16.7,57.1,-4.5,55.5,8.1C54,20.8,54,33.8,48.2,43.4C42.4,53,30.8,59.2,18.1,64C5.4,68.8,-8.3,72.1,-18.7,67.4C-29.1,62.7,-36,49.9,-40.2,38.5C-44.3,27.1,-45.6,16.9,-50.1,5.4C-54.6,-6.1,-62.3,-19,-60.5,-29.6C-58.8,-40.2,-47.6,-48.4,-35.9,-55.1C-24.3,-61.9,-12.1,-67.1,1.4,-69.2C14.9,-71.3,29.7,-70.3,40.3,-63.1Z" transform="translate(100 100)" />
</svg>
