<?xml version="1.0" standalone="no"?>
<svg viewBox="0 0 200 200" xmlns="http://www.w3.org/2000/svg">
  <path fill="#F7B801" d="M30.8,-54.7C36.5,-44.3,35.3,-29.9,34.2,-19.4C33.2,-8.9,32.4,-2.2,34.1,6.8C35.8,15.8,40,27.1,36.2,31.1C32.3,35,20.3,31.6,8.9,38.9C-2.5,46.1,-13.2,63.9,-24.2,67.5C-35.2,71.1,-46.4,60.5,-52.1,48.3C-57.8,36.1,-58,22.2,-57.9,9.5C-57.9,-3.1,-57.5,-14.6,-49.9,-19.2C-42.2,-23.7,-27.2,-21.3,-17.6,-30C-8.1,-38.7,-4,-58.6,4.3,-65.2C12.6,-71.8,25.1,-65.2,30.8,-54.7Z" transform="translate(100 100)" />
</svg>
